<svg viewBox="0 0 2048 2048" width="1em" height="1em" fill="none" xmlns="http://www.w3.org/2000/svg">
<path d="M495.547 618.24L446 585.75V645V937V1164V1184.89L465.123 1193.29L1011.12 1433.29L1023.99 1438.95L1036.86 1433.3L1583.86 1193.3L1603 1184.9V1164V645V585.839L1553.49 618.218L1194.47 853H1024H853.556L495.547 618.24Z" stroke="currentColor" stroke-width="64"/>
<path d="M650.868 1274.95L606 1255.24V1304.25V1448V1507.16L655.515 1474.78L787.015 1388.78L836.447 1356.45L782.368 1332.7L650.868 1274.95Z" stroke="currentColor" stroke-width="64"/>
<path d="M1397.13 1274.95L1442 1255.25V1304.25V1448V1507.17L1392.49 1474.79L1260.99 1388.79L1211.55 1356.46L1265.63 1332.71L1397.13 1274.95Z" stroke="currentColor" stroke-width="64"/>
</svg>
